<svg width="123" height="69" viewBox="0 0 123 69" fill="none" xmlns="http://www.w3.org/2000/svg">
<g clip-path="url(#clip0_4_9)">
<path d="M1.10001 31.27C4.27061 27.4159 7.70915 23.7902 11.39 20.42C25.76 7.34 42.08 0.359999 59 -7.51577e-07C75.92 -0.360001 93 5.93 109.29 19.32C113.747 23.0167 117.934 27.0269 121.82 31.32C122.456 32.0206 122.828 32.9203 122.874 33.8652C122.92 34.8101 122.635 35.7415 122.07 36.5C117.744 42.6596 112.573 48.1803 106.71 52.9C105.283 54.04 103.827 55.1167 102.34 56.13L96.61 50.13C98.32 49.02 100 47.8 101.61 46.49C106.047 42.9352 110.036 38.8554 113.49 34.34C110.529 31.247 107.394 28.3256 104.1 25.59C89.44 13.5 74 7.83 59.12 8.14C44.24 8.45 29.77 14.71 16.87 26.45C14.2378 28.8534 11.7406 31.4006 9.39001 34.08C13.6651 39.056 18.531 43.4921 23.88 47.29C35.3833 55.6084 49.2043 60.1128 63.4 60.17C64.4 60.17 65.47 60.17 66.5 60.08L73.68 67.49C70.2877 68.0097 66.8619 68.2804 63.43 68.3C47.5516 68.2718 32.0808 63.2711 19.19 54C12.2939 49.0881 6.12916 43.223 0.880009 36.58C0.274283 35.8154 -0.0367048 34.8587 0.00367418 33.8841C0.0440531 32.9095 0.433113 31.9818 1.10001 31.27ZM62.8 11.91C66.212 11.9259 69.5736 12.7352 72.619 14.2739C75.6644 15.8126 78.3101 18.0386 80.3471 20.7759C82.384 23.5132 83.7564 26.6868 84.3557 30.0458C84.955 33.4048 84.7647 36.8572 83.8 40.13C83.2722 41.8847 82.5228 43.5649 81.57 45.13L94.33 58.67C94.4294 58.7678 94.5073 58.8854 94.5586 59.0151C94.6099 59.1449 94.6335 59.2839 94.6278 59.4233C94.6221 59.5627 94.5874 59.6993 94.5258 59.8245C94.4642 59.9496 94.377 60.0605 94.27 60.15L88 65.85C87.9015 65.9488 87.7834 66.026 87.6533 66.0764C87.5231 66.1269 87.3839 66.1495 87.2445 66.1429C87.1051 66.1363 86.9686 66.1006 86.8438 66.0381C86.7191 65.9756 86.6088 65.8877 86.52 65.78L74.2 52.62C71.252 54.4079 67.925 55.4779 64.4874 55.7437C61.0498 56.0095 57.5978 55.4636 54.41 54.15C51.7469 53.0421 49.3277 51.4214 47.29 49.38V49.33C44.7617 46.7682 42.9006 43.6252 41.8699 40.1767C40.8391 36.7281 40.6702 33.0793 41.378 29.5503C42.0858 26.0213 43.6486 22.7198 45.9295 19.9354C48.2103 17.151 51.1394 14.9688 54.46 13.58C57.1187 12.4739 59.9704 11.9063 62.85 11.91H62.8ZM75.19 21.47C73.5595 19.8441 71.6265 18.5532 69.5 17.67C65.2214 15.9232 60.4286 15.9232 56.15 17.67C54.0293 18.5584 52.1005 19.8488 50.47 21.47C48.8406 23.1014 47.5493 25.0385 46.67 27.17C45.8118 29.2786 45.3703 31.5335 45.37 33.81C45.3691 36.111 45.8217 38.3896 46.7019 40.5156C47.5821 42.6415 48.8728 44.5731 50.5 46.2C52.1261 47.827 54.0568 49.1177 56.1819 49.9983C58.307 50.8789 60.5847 51.3321 62.885 51.3321C65.1853 51.3321 67.4631 50.8789 69.5881 49.9983C71.7132 49.1177 73.6439 47.827 75.27 46.2C76.8972 44.5731 78.1879 42.6415 79.0681 40.5156C79.9484 38.3896 80.4009 36.111 80.4 33.81C80.3776 31.5258 79.9017 29.2688 79 27.17C78.1208 25.0385 76.8294 23.1014 75.2 21.47H75.19ZM59.32 22.7C60.7844 22.698 62.2165 23.1306 63.435 23.943C64.6534 24.7553 65.6035 25.9109 66.1648 27.2635C66.7261 28.6161 66.8735 30.1048 66.5883 31.5412C66.3031 32.9776 65.5981 34.2971 64.5626 35.3326C63.5271 36.3681 62.2076 37.0731 60.7712 37.3583C59.3348 37.6435 57.8461 37.4961 56.4935 36.9348C55.1409 36.3735 53.9853 35.4234 53.173 34.205C52.3606 32.9865 51.928 31.5544 51.93 30.09C51.93 28.1301 52.7086 26.2504 54.0945 24.8645C55.4804 23.4786 57.3601 22.7 59.32 22.7Z" fill="#FF6347"/>
</g>
<defs>
<clipPath id="clip0_4_9">
<rect width="122.88" height="68.3" fill="white"/>
</clipPath>
</defs>
</svg>
